<svg xmlns="http://www.w3.org/2000/svg" width="174.2" height="20.4" viewBox="0 0 174.2 20.4">
  <path fill="#fff" d="M4.3 16.1c-.7 0-1.2-.1-1.7-.3s-.9-.5-1.3-.8-.6-.7-.8-1.2-.3-1-.4-1.6S0 11 0 10.3V5.8c0-.7 0-1.3.1-1.9s.2-1.1.4-1.6.5-.9.8-1.2S2 .5 2.5.3 3.7 0 4.3 0C5 0 5.7.1 6.2.3s1 .5 1.3 1 .6.9.7 1.5.3 1.2.3 2v.5H6.3V3.9s0-.4-.1-.7-.2-.4-.3-.5-.2-.3-.3-.5-.3-.2-.5-.3-.5-.1-.8-.1c-.3 0-.7.1-.9.2s-.5.3-.6.5-.3.4-.4.7-.1.6-.1.9v7.7s.1.6.2.9.2.6.4.8.3.4.6.5.5.2.9.2.6-.1.9-.2.4-.3.6-.5.2-.5.3-.8.1-.6.2-.9 0-.6 0-1v-.6h2.2v.6c0 .8-.1 1.5-.2 2.1s-.4 1.2-.7 1.6-.8.8-1.3 1.1-1.3.5-2.1.5zm10.7 0c-.8 0-1.5-.1-2-.4s-1-.6-1.3-1.1-.6-1-.7-1.6-.2-1.3-.2-2.2V5.1c0-.8.1-1.5.2-2.2s.4-1.1.7-1.6.8-.8 1.3-1 1.2-.3 2-.3c1.5 0 2.6.4 3.3 1.3s1 2.2 1 3.8v5.7c0 .8-.1 1.5-.2 2.2s-.4 1.2-.7 1.6-.8.8-1.3 1.1-1.3.4-2.1.4zm-1.7-2.6c.3.5.8.7 1.6.7s1.3-.2 1.6-.7.5-1.2.5-2.1V4.6c0-.9-.1-1.6-.4-2s-.8-.8-1.6-.8-1.3.2-1.6.7-.4 1.1-.4 2v6.8c-.1 1 0 1.7.3 2.2zm8.9 2.4V.2h3.1l2.2 12.1L29.7.2h3.1V16h-2.2V3.5l-2.2 12.4h-1.7L24.4 3.5v12.4h-2.2zm17.9.2c-.8 0-1.5-.1-2-.4s-1-.6-1.3-1.1-.6-1-.7-1.6-.2-1.3-.2-2.2V5.1c0-.8.1-1.5.2-2.2s.4-1.1.7-1.6.8-.8 1.3-1 1.2-.3 2-.3c1.5 0 2.6.4 3.3 1.3s1 2.2 1 3.8v5.7c0 .8-.1 1.5-.2 2.2s-.4 1.2-.7 1.6-.8.8-1.3 1.1-1.3.4-2.1.4zm-1.7-2.6c.3.5.8.7 1.6.7s1.3-.2 1.6-.7.5-1.2.5-2.1V4.6c0-.9-.1-1.6-.4-2s-.8-.7-1.6-.7-1.3.2-1.6.7-.5 1.1-.5 2v6.8c0 .9.1 1.6.4 2.1zm15.1 2.4V2.2h-2.8v-2h7.9v2h-2.8v13.7h-2.3zm13.3-.1c-.5.2-1.1.3-1.8.3s-1.3-.1-1.8-.3-1-.4-1.3-.8c-.3-.3-.6-.7-.8-1.2s-.4-1-.4-1.6-.1-1.2-.1-1.9V.2h2.2v11.3c0 .3.1.7.2 1.1s.2.7.4.9c.2.2.4.4.7.6s.6.2 1 .2.7-.1 1-.2c.3-.1.5-.3.7-.6s.3-.5.4-.9.1-.7.2-1.1 0-.7 0-1.2V.2h2.2v10.1c0 .7 0 1.4-.1 1.9s-.2 1.1-.4 1.6-.5.9-.8 1.2-1 .6-1.5.8zm5.7.1V.2H76c1.6 0 2.8.3 3.5 1 .7.7 1 1.8 1 3.5v6.2c0 1.7-.3 3-1 3.8-.7.8-1.9 1.2-3.5 1.2h-3.5zm2.3-1.7H76c.4 0 .7 0 .9-.1s.5-.2.6-.4.3-.3.4-.5.2-.4.2-.8.1-.6.1-.8V3.9c0-.2 0-.4-.1-.5s0-.3-.1-.5-.1-.3-.2-.4l-.3-.3c-.1-.1-.2-.2-.4-.2s-.3-.1-.5-.1h-1.9v12.3zm12.6 1.9c-.8 0-1.5-.1-2-.4s-1-.6-1.3-1.1-.6-1-.7-1.6-.2-1.3-.2-2.2V5.1c0-.8.1-1.5.2-2.2s.4-1.1.7-1.6.8-.8 1.3-1 1.2-.3 2-.3c1.5 0 2.6.4 3.3 1.3s1 2.2 1 3.8v5.7c0 .8-.1 1.5-.2 2.2-.2.6-.4 1.2-.7 1.6s-.8.8-1.3 1.1-1.3.4-2.1.4zm-1.6-2.6c.3.5.8.7 1.6.7s1.3-.2 1.6-.7.5-1.2.5-2.1V4.6c0-.9-.1-1.6-.4-2s-.8-.7-1.6-.7-1.3.2-1.6.7-.4 1.1-.4 2v6.8c-.2.9 0 1.6.3 2.1zm17.4 2.6c-.7 0-1.2-.1-1.7-.3s-.9-.4-1.2-.8-.6-.7-.8-1.2c-.2-.5-.3-1-.4-1.6S99 11 99 10.3V5.8c0-.7 0-1.3.1-1.9s.2-1.1.4-1.6.5-.9.8-1.2.7-.6 1.2-.8 1.1-.3 1.7-.3c.7 0 1.4.1 1.9.3s1 .5 1.3 1c.3.4.6.9.7 1.5.2.6.3 1.2.3 2v.5h-2.2V3.9s0-.4-.1-.7-.1-.4-.2-.6-.2-.3-.3-.4c-.1-.1-.3-.2-.5-.3s-.5-.1-.7-.1c-.4 0-.7.1-.9.2-.3.1-.5.3-.6.5s-.3.4-.3.7c-.1.3-.1.6-.2.9s0 .7 0 1.1v6.6c0 .3.1.6.2.9s.2.6.4.8c.2.2.3.4.6.5s.5.2.9.2.6-.1.9-.2.4-.3.6-.5.2-.5.3-.8c.1-.3.1-.6.2-.9s0-.6 0-1v-.6h2.2v.6c0 .8-.1 1.5-.2 2.1s-.4 1.2-.7 1.6c-.3.5-.8.8-1.3 1.1-.8.3-1.5.5-2.3.5zm10.7 0c-.8 0-1.5-.1-2-.4s-1-.6-1.3-1.1-.6-1-.7-1.6-.2-1.3-.2-2.2V5.1c0-.8.1-1.5.2-2.2s.4-1.1.7-1.6.8-.8 1.3-1 1.2-.3 2-.3c1.5 0 2.6.4 3.3 1.3s1 2.2 1 3.8v5.7c0 .8-.1 1.5-.2 2.2-.2.6-.4 1.2-.7 1.6s-.8.8-1.3 1.1-1.3.4-2.1.4zm-1.7-2.6c.3.5.8.7 1.6.7s1.3-.2 1.6-.7.5-1.2.5-2.1V4.6c0-.9-.1-1.6-.4-2s-.8-.7-1.6-.7-1.3.2-1.6.7-.4 1.1-.4 2v6.8c-.1.9 0 1.6.3 2.1zm8.9 2.4V.2h3.1l2.2 12.1L128.6.2h3.1V16h-2.2V3.5l-2.2 12.4h-1.7l-2.2-12.4v12.4h-2.3zm13.8 0V.2h6.2v1.7h-3.9V7h2.8v1.7h-2.8v5.6h3.9V16h-6.2zm12.5.2c-.7 0-1.2-.1-1.7-.3s-.9-.4-1.2-.8-.6-.7-.8-1.2c-.2-.5-.3-1-.4-1.6s-.1-1.2-.1-1.9V5.8c0-.7 0-1.3.1-1.9s.2-1.1.4-1.6.5-.9.8-1.2.7-.6 1.2-.8 1.1-.3 1.7-.3c.7 0 1.4.1 1.9.3s1 .5 1.3 1c.3.4.6.9.7 1.5.2.6.3 1.2.3 2v.5h-2.2V3.9s0-.4-.1-.7-.1-.4-.2-.6-.2-.3-.3-.4c-.1-.1-.3-.2-.5-.3s-.5-.1-.7-.1c-.4 0-.7.1-.9.2-.3.1-.5.3-.6.5s-.3.4-.3.7c-.1.3-.1.6-.2.9s0 .7 0 1.1v6.6c0 .3.1.6.2.9s.2.6.4.8c.2.2.3.4.6.5s.5.2.9.2.6-.1.9-.2.4-.3.6-.5.2-.5.3-.8c.1-.3.1-.6.2-.9s0-.6 0-1v-.6h2.2v.6c0 .8-.1 1.5-.2 2.1s-.4 1.2-.7 1.6c-.3.5-.8.8-1.3 1.1-.8.3-1.5.5-2.3.5zm-1.2 4.3v-1.1h1c.4 0 .7 0 .9-.1s.4-.2.4-.5c0-.1 0-.2-.1-.2 0-.1-.1-.1-.2-.2s-.2-.1-.3-.2c-.1-.1-.2-.1-.3-.2s-.2-.1-.3-.1-.2-.1-.3-.1-.2-.1-.2-.1v-1.7h1.1V17c.3.1.5.2.7.2.2.1.4.2.7.3s.5.3.6.5.2.4.2.7c0 .2 0 .4-.1.6s-.1.3-.3.4-.2.2-.4.3c-.2.1-.3.1-.5.2s-.4.1-.6.1h-2zm11.9-4.3c-.8 0-1.5-.1-2-.4s-1-.6-1.3-1.1-.6-1-.7-1.6-.2-1.3-.2-2.2V5.1c0-.8.1-1.5.2-2.2s.4-1.1.7-1.6.8-.8 1.3-1 1.2-.3 2-.3c1.5 0 2.6.4 3.3 1.3s1 2.2 1 3.8v5.7c0 .8-.1 1.5-.2 2.2-.2.6-.4 1.2-.7 1.6s-.8.8-1.3 1.1-1.3.4-2.1.4zm-1.7-2.6c.3.5.8.7 1.6.7s1.3-.2 1.6-.7.5-1.2.5-2.1V4.6c0-.9-.1-1.6-.4-2s-.8-.7-1.6-.7-1.3.2-1.6.7-.4 1.1-.4 2v6.8c-.1.9 0 1.6.3 2.1zm15.1 2.3c-.5.2-1.1.3-1.8.3s-1.3-.1-1.8-.3-1-.4-1.3-.8c-.3-.3-.6-.7-.8-1.2s-.4-1-.4-1.6-.1-1.2-.1-1.9V.2h2.2v11.3c0 .3.1.7.2 1.1s.2.7.4.9c.2.2.4.4.7.6s.6.2 1 .2.7-.1 1-.2c.3-.1.5-.3.7-.6s.3-.5.4-.9.1-.7.2-1.1 0-.7 0-1.2V.2h2.2v10.1c0 .7 0 1.4-.1 1.9s-.2 1.1-.4 1.6-.5.9-.8 1.2-1 .6-1.5.8z"/>
</svg>
