<svg xmlns="http://www.w3.org/2000/svg" width="132.3" height="16.1" viewBox="0 0 132.3 16.1">
  <path fill="#fff" d="M0 15.9V.2h3.5c1.6 0 2.8.3 3.5 1S8 3 8 4.7v6.2c0 1.7-.3 3-1 3.8s-1.9 1.2-3.5 1.2H0zm2.2-1.7h1.2c.4 0 .7 0 .9-.1s.5-.2.6-.4.3-.3.4-.5.2-.4.2-.8.1-.6.1-.8V3.9s0-.4-.1-.5.1-.3 0-.5-.1-.3-.2-.4L5 2.2 4.6 2s-.3-.1-.5-.1H2.2v12.3zm8.8 1.7V.2h2.2V16H11zm9.6.2c-1.4 0-2.5-.4-3.2-1.2s-1.2-2-1.3-3.4l2.2-.6c.1 2.2.9 3.4 2.2 3.4 1.1 0 1.7-.6 1.7-1.7 0-.3 0-.6-.1-.9s-.2-.5-.4-.8-.4-.4-.5-.6-.4-.3-.6-.5l-2.8-2.2c-.5-.4-.9-.9-1.2-1.5s-.5-1.3-.5-2.1c0-1.2.4-2.1 1.1-2.8s1.7-1 2.9-1c1.3 0 2.3.3 3 .9s1.2 1.5 1.4 2.6c0 .1 0 .3.1.5l-2.2.6v-.4c-.1-.7-.3-1.3-.7-1.7s-.9-.6-1.5-.6c-.5 0-1 .2-1.2.5s-.6.4-.6 1c0 .9.4 1.6 1.1 2.2L22.3 8c1.5 1.2 2.2 2.7 2.2 4.4 0 1.2-.4 2.1-1.1 2.7s-1.6 1-2.8 1zM26 12v-1.7h3.4V12H26zm5.4 3.9V.2h2.2v14.1h3.9V16h-6.1zm8.1 0V.2h6.2v1.7h-3.9V7h2.8v1.7h-2.8v5.6h3.9V16h-6.2zm12.1 0L55 .1h2.2l3.4 15.8h-2.2l-.9-3.9h-2.8l-.8 3.9h-2.3zm3.3-5.6h2.2L56 3.5l-1.1 6.8zm14 5.5c-.5.2-1.1.3-1.8.3s-1.3-.1-1.8-.3-1-.4-1.3-.8c-.3-.3-.6-.7-.8-1.2s-.4-1-.4-1.6-.1-1.2-.1-1.9V.2h2.2v11.3c0 .3.1.7.2 1.1s.2.7.4.9c.2.2.4.4.7.6.3.1.6.2 1 .2s.7-.1 1-.2c.3-.1.5-.3.7-.6.2-.2.3-.5.4-.9s.1-.7.2-1.1V.2h2.2v10.1c0 .7 0 1.4-.1 1.9s-.2 1.1-.4 1.6-.5.9-.8 1.2c-.6.4-1 .6-1.5.8zm10.2.1V.2h3.1l2.2 12.1L86.6.2h3.1V16h-2.2V3.5l-2.2 12.4h-1.7L81.4 3.5v12.4h-2.3zm17.9.2c-.8 0-1.5-.1-2-.4s-1-.6-1.3-1.1-.6-1-.7-1.6-.2-1.3-.2-2.2V5.1c0-.8.1-1.5.2-2.2s.4-1.1.7-1.6.8-.8 1.3-1 1.2-.3 2-.3c1.5 0 2.6.4 3.3 1.3s1 2.2 1 3.8v5.7c0 .8-.1 1.5-.2 2.2-.2.6-.4 1.2-.7 1.6s-.8.8-1.3 1.1-1.3.4-2.1.4zm-1.6-2.6c.3.5.8.7 1.6.7s1.3-.2 1.6-.7.5-1.2.5-2.1V4.6c0-.9-.1-1.6-.4-2s-.9-.8-1.7-.8-1.3.2-1.6.7-.4 1.1-.4 2v6.8c-.1 1 .1 1.7.4 2.2zm8.8 2.4V.2h1.7l3.9 9.7V.2h2.2V16h-1.6l-4-10.5V16h-2.2zm11.1 0V.2h3.5c1.6 0 2.8.3 3.5 1 .7.7 1 1.8 1 3.5v6.2c0 1.7-.3 3-1 3.8-.7.8-1.9 1.2-3.5 1.2h-3.5zm2.2-1.7h1.2c.4 0 .7 0 .9-.1s.5-.2.6-.4.3-.3.4-.5.2-.4.2-.8.1-.6.1-.8V3.9c0-.2 0-.4-.1-.5s-.1-.3-.1-.5-.1-.3-.2-.4l-.3-.3c-.1-.1-.2-.2-.4-.2s-.3-.1-.5-.1h-1.9v12.3zm8.6 1.7V.2h6.2v1.7h-3.9V7h2.8v1.7h-2.8v5.6h3.9V16h-6.2z"/>
</svg>
