<svg xmlns="http://www.w3.org/2000/svg" width="171.3" height="20.3" viewBox="0 0 171.3 20.3">
  <path fill="#fff" d="M4.3 20.3c-.7 0-1.2-.1-1.7-.3s-.9-.4-1.2-.8-.6-.7-.9-1.2-.3-1-.4-1.6-.1-1.1-.1-1.9V10c0-.7 0-1.3.1-1.9S.3 7 .5 6.5s.5-.8.8-1.2.7-.6 1.2-.8 1.1-.3 1.7-.3c.7 0 1.4.1 1.9.3s1 .5 1.3 1 .7 1 .8 1.5.3 1.2.3 2v.5H6.3V8.2s0-.4-.1-.7-.2-.4-.3-.6-.2-.3-.3-.4-.3-.2-.5-.3-.5-.1-.8-.1c-.3 0-.7.1-.9.2s-.5.3-.6.4-.3.5-.4.8-.1.6-.1.9v7.7s.1.6.2.9.2.6.4.8.3.4.6.5.5.2.9.2.6-.1.9-.2.4-.3.6-.5.1-.4.2-.8.1-.6.2-.9 0-.6 0-1v-.6h2.2v.6c0 .8-.1 1.5-.2 2.1s-.4 1.2-.7 1.6-.7.9-1.3 1.2-1.2.3-2 .3zm10.7 0c-.8 0-1.5-.1-2-.4s-1-.6-1.3-1.1-.6-1-.7-1.6-.2-1.3-.2-2.2V9.4c0-.8.1-1.5.2-2.2s.4-1.1.7-1.6.8-.8 1.3-1 1.2-.3 2-.3c1.5 0 2.6.4 3.3 1.3s1 2.2 1 3.8v5.7c0 .8-.1 1.5-.2 2.2s-.4 1.2-.7 1.6-.8.8-1.4 1.1-1.2.3-2 .3zm-1.7-2.5c.3.5.8.7 1.6.7s1.3-.2 1.6-.7.5-1.2.5-2.1V8.8c0-.9-.1-1.6-.4-2s-.8-.7-1.6-.7-1.3.2-1.6.7-.4 1.1-.4 2v6.8c-.1 1 0 1.7.3 2.2zm1.1-14.4L15.5 0h2.2l-2.2 3.4h-1.1zm7.8 16.8V4.4h3.1l2.2 12.1 2.2-12.1h3.1v15.8h-2.2V7.8l-2.2 12.4h-1.7L24.4 7.8v12.4h-2.2zm17.9.1c-.8 0-1.5-.1-2-.4s-1-.6-1.3-1.1-.6-1-.7-1.6-.2-1.3-.2-2.2V9.4c0-.8.1-1.5.2-2.2s.4-1.1.7-1.6.8-.8 1.3-1 1.2-.3 2-.3c1.5 0 2.6.4 3.3 1.3s1 2.2 1 3.8v5.7c0 .8-.1 1.5-.2 2.2s-.4 1.2-.7 1.6-.8.8-1.3 1.1-1.3.3-2.1.3zm-1.7-2.5c.3.5.8.7 1.6.7s1.3-.2 1.6-.7.5-1.2.5-2.1V8.8c0-.9-.1-1.6-.4-2s-.8-.7-1.6-.7-1.3.2-1.6.7-.5 1.1-.5 2v6.8c0 1 .1 1.7.4 2.2zm15.1 2.4V6.4h-2.8v-2h7.9v2h-2.8v13.7h-2.3zm11 .1c-.8 0-1.5-.1-2-.4-.6-.2-1-.6-1.3-1.1s-.6-1-.7-1.6-.2-1.3-.2-2.2V9.4c0-.8.1-1.5.2-2.2s.4-1.1.7-1.6.8-.8 1.3-1c.6-.2 1.2-.3 2-.3 1.5 0 2.6.4 3.3 1.3s1 2.2 1 3.8v5.7c0 .8-.1 1.5-.2 2.2-.2.6-.4 1.2-.7 1.6s-.8.8-1.3 1.1-1.3.3-2.1.3zm-1.6-2.5c.3.5.8.7 1.6.7s1.3-.2 1.6-.7.5-1.2.5-2.1V8.8c0-.9-.1-1.6-.4-2s-.8-.7-1.6-.7-1.3.2-1.6.7-.4 1.1-.4 2v6.8c-.2 1 0 1.7.3 2.2zm8.9 2.4V4.4h3.5c1.6 0 2.8.3 3.5 1 .7.7 1 1.8 1 3.5v6.2c0 1.7-.3 3-1 3.8-.7.8-1.9 1.2-3.5 1.2h-3.5zm2.2-1.7h1.2c.4 0 .7 0 .9-.1s.5-.2.6-.4.3-.3.4-.5.2-.4.2-.8.1-.6.1-.8V8.2c0-.2 0-.4-.1-.5s-.1-.3-.1-.5-.1-.3-.2-.4l-.3-.3c-.1-.1-.2-.2-.4-.2s-.3-.1-.5-.1H74v12.3zm12.7 1.8c-.8 0-1.5-.1-2-.4s-1-.6-1.3-1.1-.6-1-.7-1.6-.2-1.3-.2-2.2V9.4c0-.8.1-1.5.2-2.2s.4-1.1.7-1.6.8-.8 1.3-1 1.2-.3 2-.3c1.5 0 2.6.4 3.3 1.3s1 2.2 1 3.8v5.7c0 .8-.1 1.5-.2 2.2-.2.6-.4 1.2-.7 1.6s-.8.8-1.3 1.1-1.3.3-2.1.3zM85 17.8c.3.5.8.7 1.6.7s1.3-.2 1.6-.7.5-1.2.5-2.1V8.8c0-.9-.1-1.6-.4-2s-.8-.7-1.6-.7-1.4.2-1.7.7-.4 1.1-.4 2v6.8c0 1 .1 1.7.4 2.2zm17.5 2.5c-.7 0-1.2-.1-1.7-.3s-.9-.4-1.2-.8-.6-.7-.8-1.2c-.2-.5-.3-1-.4-1.6s-.1-1.2-.1-1.9V10c0-.7 0-1.3.1-1.9s.2-1.1.4-1.6.5-.9.8-1.2.7-.6 1.2-.8 1.1-.3 1.7-.3c.7 0 1.4.1 1.9.3s1 .5 1.3 1c.3.4.6.9.7 1.5.2.6.3 1.2.3 2v.5h-2.2V8.2s0-.4-.1-.7-.1-.4-.2-.6-.2-.3-.3-.4c-.1-.1-.3-.2-.5-.3s-.5-.1-.7-.1c-.4 0-.7.1-.9.2-.3.1-.5.3-.6.5s-.3.4-.3.7c-.1.3-.1.6-.2.9s0 .7 0 1.1v6.6c0 .3.1.6.2.9s.2.6.4.8c.2.2.3.4.6.5s.5.2.9.2.6-.1.9-.2.4-.3.6-.5.2-.5.3-.8c.1-.3.1-.6.2-.9s0-.6 0-1v-.6h2.2v.6c0 .8-.1 1.5-.2 2.1s-.4 1.2-.7 1.6c-.3.5-.8.8-1.3 1.1-.9.3-1.5.4-2.3.4zm10.6 0c-.8 0-1.5-.1-2-.4s-1-.6-1.3-1.1-.6-1-.7-1.6-.2-1.3-.2-2.2V9.4c0-.8.1-1.5.2-2.2s.4-1.1.7-1.6.8-.8 1.3-1 1.2-.3 2-.3c1.5 0 2.6.4 3.3 1.3s1 2.2 1 3.8v5.7c0 .8-.1 1.5-.2 2.2-.2.6-.4 1.2-.7 1.6s-.8.8-1.3 1.1-1.3.3-2.1.3zm-1.6-2.5c.3.5.8.7 1.6.7s1.3-.2 1.6-.7.5-1.2.5-2.1V8.8c0-.9-.1-1.6-.4-2s-.8-.7-1.6-.7-1.3.2-1.6.7-.4 1.1-.4 2v6.8c-.2 1 0 1.7.3 2.2zm8.8 2.4V4.4h3.1l2.2 12.1 2.2-12.1h3.1v15.8h-2.2V7.8l-2.2 12.4h-1.7l-2.2-12.4v12.4h-2.3zm13.9 0V4.4h6.2v1.7h-3.9v5.1h2.8v1.7h-2.8v5.6h3.9v1.7h-6.2zm8.4 0V4.4h1.7l3.9 9.7V4.4h2.2v15.8h-1.6l-4-10.5v10.5h-2.2zm10.5 0v-1.7l5.1-12.4h-4.5V4.4h6.8v1.7l-5.1 12.4h5.1v1.7h-7.4zm13.9.1c-.8 0-1.5-.1-2-.4s-1-.6-1.3-1.1-.6-1-.7-1.6-.2-1.3-.2-2.2V9.4c0-.8.1-1.5.2-2.2s.4-1.1.7-1.6.8-.8 1.3-1 1.2-.3 2-.3c1.5 0 2.6.4 3.3 1.3s1 2.2 1 3.8v5.7c0 .8-.1 1.5-.2 2.2-.2.6-.4 1.2-.7 1.6s-.8.8-1.3 1.1-1.3.3-2.1.3zm-1.7-2.5c.3.5.8.7 1.6.7s1.3-.2 1.6-.7.5-1.2.5-2.1V8.8c0-.9-.1-1.6-.4-2s-.8-.7-1.6-.7-1.3.2-1.6.7-.4 1.1-.4 2v6.8c-.1 1 0 1.7.3 2.2zm1.1-14.4l1.1-3.4h2.2l-2.2 3.4h-1.1z"/>
</svg>
