<svg width="127" height="17" viewBox="172 177 127 17" xmlns="http://www.w3.org/2000/svg">
	<path d="M174.848 193v-13.746h-2.812v-2.004h7.875v2.004h-2.81V193h-2.25zm7.08 0v-15.75h6.187v1.688h-3.938V184h2.813v1.688h-2.813v5.625h3.938V193h-6.188zm8.467 0v-15.75h2.25v14.063h3.937V193h-6.187zm8.133 0v-15.75h2.25v14.063h3.937V193h-6.187zm14.368 0v-13.746h-2.812v-2.004h7.875v2.004h-2.82V193h-2.25zm7.08 0v-15.75h2.25V184h3.936v-6.75h2.25V193h-2.25v-7.313h-3.937V193h-2.25zm11.587 0v-15.75h6.187v1.688h-3.938V184h2.813v1.688h-2.813v5.625h3.938V193h-6.188zm14.807 0l-2.812-15.75h2.25l1.125 7.313.57 4.5.555-4.5 1.125-7.313h2.25l1.125 7.313.554 4.5.57-4.5 1.126-7.313h2.25L254.245 193h-2.25l-1.125-7.313-.562-4.5-.563 4.5L248.62 193h-2.25zm16.87.158c-.79 0-1.47-.12-2.035-.36-.565-.24-1.015-.592-1.35-1.055-.333-.463-.576-1.006-.728-1.63-.153-.624-.23-1.35-.23-2.175v-5.713c0-.827.077-1.547.23-2.162.152-.616.395-1.15.73-1.605.333-.454.783-.795 1.348-1.023.566-.23 1.244-.343 2.035-.343 1.535 0 2.643.44 3.322 1.318.68.88 1.02 2.15 1.02 3.815v5.713c0 .814-.078 1.533-.233 2.157-.16.624-.4 1.17-.74 1.635-.34.466-.79.82-1.35 1.063-.57.244-1.24.365-2.03.365zm0-1.845c.79 0 1.337-.238 1.64-.712.3-.47.452-1.17.452-2.1v-6.83c0-.91-.15-1.59-.448-2.05-.3-.45-.847-.67-1.644-.67-.797 0-1.345.227-1.644.678-.298.45-.448 1.133-.448 2.047v6.838c0 .928.15 1.628.453 2.1.31.477.85.715 1.64.715zM272.7 184h.563c.938 0 1.64-.198 2.11-.593.468-.396.703-1.042.703-1.938 0-.9-.235-1.55-.704-1.94-.468-.4-1.17-.6-2.11-.6h-.56V184zm-2.25 9v-15.75h2.813c1.676 0 2.94.325 3.788.976.85.65 1.28 1.73 1.28 3.243 0 .93-.16 1.72-.5 2.35-.33.63-.82 1.06-1.47 1.3l2.53 7.88h-2.23l-2.27-7.32h-1.69V193h-2.25zm10.64 0v-15.75h2.25v14.063h3.936V193h-6.187zm8.132 0v-15.75h3.49c1.646 0 2.808.337 3.484 1.01.677.675 1.016 1.838 1.016 3.49v6.188c0 1.728-.345 3.004-1.033 3.827-.69.823-1.85 1.235-3.49 1.235h-3.47zm2.25-1.688h1.24c.37 0 .685-.033.95-.1.262-.068.476-.19.64-.37.164-.178.293-.348.387-.51.09-.16.16-.41.19-.75.04-.34.06-.62.06-.84.004-.22.01-.56.01-1.024v-5.406c0-.287-.005-.515-.008-.685-.003-.17-.01-.37-.026-.602-.016-.232-.038-.415-.067-.55-.03-.134-.07-.285-.123-.452-.05-.167-.12-.297-.195-.39-.08-.095-.175-.193-.29-.296-.113-.102-.245-.178-.395-.228-.15-.05-.324-.1-.523-.13-.2-.03-.42-.05-.666-.05h-1.195v12.37z" fill="#FFF" fill-rule="evenodd"/>
</svg>