<svg xmlns="http://www.w3.org/2000/svg" viewBox="0 0 310.17 84.83"><title>Asset 1</title><path d="M36.59,69.71v-3.5h5v-.33c0-3.5-1.61-6.07-12.74-4.14L10.52,65,0,79.6l25.26-4.48c7.57-1.3,14.21-1.57,16.3,4.45V69.71Z" style="fill:#fff"/><path d="M45,79.57c0-4.76,2.81-8,8.56-13.78l4-4L76.11,65,86.65,79.59,62.4,75.4C54.17,73.82,47.2,73.27,45,79.57Z" style="fill:#fff"/><path d="M46,66.21c1.83-3.93,5.73-7.49,8-9.73l1.6-1.62c6.79-6.79,8.1-9.6,8.51-14.28,0-.24.37.92.47,1.74a15.11,15.11,0,0,1-.79,7.52c-1.4,4.13-4.72,7.41-9,11.72L50.1,66.21Z" style="fill:#fff"/><path d="M50,9.25s.11-.06.11,0v5.42c0,4.9-6.3,10.55-8.8,13L32.06,37c-3.19,3.19-9.57,9.49-6.89,15.56.09.2.17.38-.17.13-.68-.48-1.72-2.19-2-5.29-.49-5.54,3.29-10.5,7.94-15.16l8.8-8.81C48.67,14.47,49.54,12.9,50,9.25Z" style="fill:#fff"/><path d="M41.28,37c2.51-2.49,8.8-8.14,8.8-13V18.52c0-.06-.11,0-.11,0-.43,3.65-1.3,5.22-10.23,14.15l-8.17,8.19c-3,3-5.69,6.08-5.57,11.11.08,3.08,1.63,5.63,4,6.23,1,.21.9.08.67,0-3.29-1.55-3.05-7.5,2.27-12.82Z" style="fill:#fff"/><path d="M31,28.79c-6.79,6.79-8.1,9.6-8.51,14.28,0,.24-.37-.92-.47-1.74a15.12,15.12,0,0,1,.79-7.52c1.4-4.12,4.72-7.41,9-11.72l7.9-7.91C48.67,5.26,49.54,3.69,50,0c0,0,.11-.06.11,0V5.45c0,4.9-6.3,10.55-8.8,13Z" style="fill:#fff"/><path d="M45.12,75.09s-.12,0-.12,0V69.71h2.25A11.64,11.64,0,0,0,45.12,75.09Z" style="fill:#fff"/><path d="M45.14,66.21s-.12,0-.12,0V60.73c0-4.12,4-8.57,8-12.54l2.6-2.59c2.09-2.09,8.49-8.4,5.81-14.48-.09-.2-.17-.38.17-.13.68.48,1.72,2.19,2,5.29.49,5.54-3.29,10.5-7.94,15.16l-2.4,2.41C47.5,59.63,45.57,62.22,45.14,66.21Z" style="fill:#fff"/><path d="M45.13,56.71s-.12,0-.12,0V51.14c0-3.93,3.89-8.16,5.78-10.05l2.93-2.92C59,32.85,59.29,26.9,56,25.35c-.23-.1-.29-.22.67,0,2.33.6,3.88,3.15,4,6.23.13,5-2.55,8.12-5.52,11.09L52.73,45C47.76,50,45.58,52.9,45.13,56.71Z" style="fill:#fff"/><path d="M263.88,39.82c.8,0,1.55.09,2.34.09s1.36-.09,2-.09c.33,0,.42,0,.42.19,0,.52-1.55,0-1.55,1.64V53.17c0,1.5,1.87,1,1.87,1.64,0,.14,0,.19-.42.19s-1.41,0-2.34,0c-1.31,0-1.73,0-2.06,0s-.42-.09-.42-.33c0-.61,1.64.09,1.64-2v-11c0-1.55-1.73-1.12-1.73-1.59C263.64,39.86,263.69,39.82,263.88,39.82Z" style="fill:#fff"/><path d="M229.86,46.8c2.25,0,1.69-1.73,2.2-1.73.14,0,.23.23.23.42,0,.75,0,1.45,0,2.16s0,1.12,0,1.69c0,.19-.09.28-.23.28-.66,0,0-1.87-1.73-1.87h-3.19c-.47,0-.37.37-.37.7v3.94c0,1.27-.19,1.78,1.59,1.78,5,0,5.72-2.2,6-2.2s.14.19.14.23a3.61,3.61,0,0,1-1,2.11c-.7.75-1.17.7-2.11.7-1.64,0-3.28-.09-4.92,0-.84,0-1.73,0-2.62,0-.19,0-.33,0-.33-.19s.28-.23.94-.56.61-.84.61-1.87V42.58c0-1,0-2-1.12-2.16-.19,0-.66-.09-.66-.37s.14-.23.75-.23c4,0,5.15.09,6.09.09.42,0,2.39-.09,3-.09.19,0,.23.19.23.47,0,2.39-.33,2.53-.42,2.53-.52,0-.19-1-.52-1.5-.56-.75-2.81-.61-3.66-.61-2.06,0-2-.09-2,1.36v4c0,.75,0,.75.8.75Z" style="fill:#fff"/><path d="M300.51,46.8c2.25,0,1.69-1.73,2.2-1.73.14,0,.23.23.23.42,0,.75,0,1.45,0,2.16s0,1.12,0,1.69c0,.19-.09.28-.23.28-.66,0,0-1.87-1.73-1.87h-3.19c-.47,0-.37.37-.37.7v3.94c0,1.27-.19,1.78,1.59,1.78,5,0,5.72-2.2,6-2.2s.14.19.14.23a3.6,3.6,0,0,1-1,2.11c-.7.75-1.17.7-2.11.7-1.64,0-3.28-.09-4.92,0-.84,0-1.73,0-2.62,0-.19,0-.33,0-.33-.19s.28-.23.94-.56.61-.84.61-1.87V42.58c0-1,0-2-1.12-2.16-.19,0-.66-.09-.66-.37s.14-.23.75-.23c4,0,5.15.09,6.09.09.42,0,2.39-.09,3-.09.19,0,.23.19.23.47,0,2.39-.33,2.53-.42,2.53-.52,0-.19-1-.52-1.5-.56-.75-2.81-.61-3.65-.61-2.06,0-2-.09-2,1.36v4c0,.75,0,.75.8.75Z" style="fill:#fff"/><path d="M234.59,39.82c.38,0,.7.09,1,.09s.66-.09,1-.09.42.33.56.47l10.26,11.43c.09.14.19.23.23.23s.09-.09.09-.23v-9c0-2.81-2.39-2-2.39-2.72,0-.14.09-.19.23-.19.61,0,1.27.09,1.92.09s1.69-.09,2.2-.09a.17.17,0,0,1,.19.19c0,.56-1.27.19-1.27,1.73V54.15c0,.66,0,.94-.19.94s-.37-.09-.8-.61l-9.23-10.4s-.33-.37-.47-.37-.14,0-.14.47V53c0,1.92,1.87,1.17,1.87,1.73,0,.14,0,.28-.23.28-.52,0-1.12,0-2.16,0-.75,0-1.87,0-2,0s-.28-.09-.28-.23c0-.75,1.87.19,1.87-2.81V44c0-4.45-2.58-3.23-2.58-4C234.31,39.91,234.5,39.82,234.59,39.82Z" style="fill:#fff"/><path d="M252.21,41c-1.36,0-1.41.33-1.78,1.5-.09.23-.09.52-.37.52s-.19-.19-.19-.28l.23-2.06c0-.28,0-.84.38-.84,1.69,0,3.33.09,6.09.09,3.89,0,5.86-.09,6.28-.09s.61.14.66.61l.09,1.73c0,.19,0,.47-.23.47-.8,0,.37-1.64-1.83-1.64h-3.09c-.8,0-.84,0-.84,1V53c0,1.83,1.73,1.12,1.73,1.78,0,0,0,.23-.19.23-.52,0-1.12,0-1.73,0-2.39,0-2.81,0-3,0s-.23,0-.23-.28c0-.52,1.69-.28,1.69-1.59V42c0-.14,0-1-.28-1Z" style="fill:#fff"/><path d="M216.79,54.11c-.23.56-.37,1.27-.7,1.27s-.61-.94-.8-1.36L210,41.46c-.52-1.27-1.69-.89-1.69-1.36,0-.19.14-.28.33-.28.66,0,1.31.09,2,.09s1.41-.09,1.69-.09.28.09.28.19c0,.33-.84.33-.84,1.12a2.47,2.47,0,0,0,.19.84l3.75,8.81c.52,1.17.61,1.64.84,1.64s.28-.33.42-.61l3.7-9.18a3,3,0,0,0,.33-1.45c0-1-1.41-.61-1.41-1.08,0-.23.14-.28.33-.28.47,0,.94.09,1.45.09,1,0,1.31-.09,1.64-.09s.37.09.37.28c0,.47-.61-.09-1.22,1.36Z" style="fill:#fff"/><path d="M198,55c-.14,0-1.31,0-2,0-1.17,0-1.87,0-2.81,0s-1.55.09-2.34.09c-.14,0-.61,0-.61-.28,0-.7,1.69-.42,1.69-1.5a11.59,11.59,0,0,0-.84-2.67l-.94-2.34c-.28-.66-.42-1.08-1.22-1.08h-6.28c-.56,0-1.08,0-1.36.61l-1.78,4a2.53,2.53,0,0,0-.23,1c0,2,2,1.12,2,1.87,0,.52-.37.42-.75.42-.8,0-1.59-.09-2.39-.09s-1.55.09-2.3.09c-.14,0-.23-.14-.23-.33,0-.56,1.31-.09,2.06-1.73L184.5,38.5c1.69-3.61,1.78-4.08,2.16-4.08s.52.84.61,1.08l5.9,14.67a19.34,19.34,0,0,0,1.41,3.23,1.69,1.69,0,0,0,1.45.89c.47,0,.84-.56.84-1.5V42.11c0-2.2-1.73-1.5-1.73-2.11,0-.14.14-.19.28-.19.66,0,1.31.09,1.92.09,1.45,0,2.81-.09,4.69-.09,3.8,0,7.54,2.86,7.54,6.84,0,4.92-2.34,8.34-8.29,8.34C200.15,55,199.07,55,198,55Zm.56-13.26V51.91c0,.33,0,1.36.14,1.55a5.46,5.46,0,0,0,3.33,1c3,0,6-1.64,6-6.61,0-4.78-3.19-7.45-7.26-7.5C198.65,40.33,198.56,40.71,198.56,41.69ZM185.72,38.5l-3.23,6.89c-.19.42,0,.52.38.52h5.62c.66,0,.61-.19.47-.56l-2.76-6.84C186,38.13,185.91,38.13,185.72,38.5Z" style="fill:#fff"/><path d="M293.77,40.42l.09,1.73c0,.19,0,.47-.23.47-.8,0,.38-1.64-1.83-1.64h-3.09c-.84,0-.84,0-.84,1V53c0,1.83,1.73,1.12,1.73,1.78,0,0,0,.23-.19.23-.52,0-1.12,0-1.73,0-2.39,0-2.81,0-3,0s-.23,0-.23-.28c0-.52,1.69-.28,1.69-1.59V42c0-.14,0-1-.28-1h-4.45c-1.31,0-1.27.47-1.27,1.22,0,.23.19,1.17-.23,1.17-.23,0-.37-.47-.47-.66-.66-1.83-2.16-2.48-4-2.48s-3.51.84-3.51,2.81c0,4,8.72,1.69,8.72,7.59,0,1.83-1.27,4.55-6.14,4.55-1.59,0-3.56-.8-3.65-1.22l-.52-2.76c-.09-.42,0-.66.23-.66s.28.28.42.7a4.57,4.57,0,0,0,4.5,3.23c2.06,0,4-1.12,4-3.42,0-4.12-8.72-1.83-8.72-7.4,0-2.72,2.3-4,4.78-4a8,8,0,0,1,3.61.75c.33,0,.38-.56.8-.56,1.69,0,4.08.09,6.84.09,3.89,0,5.86-.09,6.28-.09S293.73,40,293.77,40.42Z" style="fill:#fff"/><path d="M103.65,43.4c0,1-.06,1,1.06,1h3c2.91,0,2.15-2.24,2.82-2.24.22,0,.31.31.31.53,0,1-.06,1.93-.06,2.82,0,.73.06,1.45.06,2.21,0,.25-.11.36-.31.36-.87,0,.08-2.46-2.26-2.46h-4.14c-.59,0-.5.47-.5.89v5.14c0,1.65-.22,2.32,2.12,2.32,6.46,0,7.4-2.88,7.77-2.88.2,0,.22.28.22.34a4.42,4.42,0,0,1-1.4,2.71c-.89,1-1.51,1-2.74,1-2.12,0-4.25-.17-6.37-.11-1.12,0-2.29.11-3.41.11-.25,0-.42-.06-.42-.28s.34-.28,1.23-.73c.73-.34.78-1.12.78-2.43V38.87c0-1.26,0-2.6-1.51-2.82-.22-.06-.84-.11-.84-.45s.17-.34,1-.34c5.28,0,6.73.11,7.91.11.56,0,3.13-.11,4-.11.22,0,.28.28.28.61,0,3.1-.39,3.33-.56,3.33-.67,0-.22-1.34-.67-2-.73-1-3.63-.78-4.75-.78-2.68,0-2.63-.11-2.63,1.76Z" style="fill:#fff"/><path d="M128.76,47c.17,0,.58-.09.58.19,0,.45-1.1,0-1.1,1.4V53c-2.21.71-2.79,2.17-6.62,2.17-4.75,0-7.69-2.94-7.69-7.72a7.68,7.68,0,0,1,8-7.85c3.72,0,4.79,1.46,5.39,1.46.24,0,.32-.39.56-.39s.22.32.24.49l.21,2.82c0,.17,0,.39-.24.39-.56,0-1.53-4.15-6.6-4.15-3.87,0-5.8,3.27-5.8,6.81,0,3.8,2.19,7.44,6.34,7.44,2,0,4.47-1,4.47-2.79V48.36c0-1-1.87-.56-1.87-1.1,0-.28.3-.24.49-.24Z" style="fill:#fff"/><path d="M134,52.38c0,1.27-.17,1.78,1.63,1.78,5,0,5.7-2.21,6-2.21s.17.21.17.26a3.4,3.4,0,0,1-1.07,2.08c-.69.77-1.16.73-2.11.73-1.63,0-3.27-.13-4.9-.09-.86,0-1.76.09-2.62.09-.19,0-.32,0-.32-.22s.26-.21.95-.56.6-.86.6-1.87V41.48c0-1.12-1.81-1-1.81-1.4,0-.24.15-.28.43-.28.45,0,1.12.09,2.17.09,1.23,0,1.74-.09,2.06-.09s.41,0,.41.3c0,.49-1.57,0-1.57,1.83Z" style="fill:#fff"/><path d="M144.06,41.66c0-1.57-1.74-1.14-1.74-1.61,0-.19,0-.24.21-.24.8,0,1.57.09,2.36.09s1.33-.09,2-.09c.34,0,.41,0,.41.21,0,.52-1.55,0-1.55,1.63V53.2c0,1.46,1.91,1,1.91,1.61,0,.15-.06.22-.43.22s-1.42-.09-2.34-.09c-1.31,0-1.76.09-2.06.09s-.45-.11-.45-.32c0-.62,1.68.09,1.68-2Z" style="fill:#fff"/><path d="M149.32,51.22c-.09-.43,0-.67.24-.67s.3.26.41.71a4.59,4.59,0,0,0,4.51,3.22c2,0,4-1.14,4-3.4,0-4.15-8.73-1.83-8.73-7.44,0-2.73,2.3-4,4.77-4a7.61,7.61,0,0,1,3.61.77c.19,0,.24-.24.45-.24s.24.06.26.3l.32,2.92c0,.17,0,.32-.24.32s-.39-.45-.45-.64a4.1,4.1,0,0,0-4.11-2.79c-1.7,0-3.5.82-3.5,2.79,0,4,8.73,1.68,8.73,7.61,0,1.81-1.27,4.51-6.15,4.51-1.59,0-3.55-.79-3.63-1.18Z" style="fill:#fff"/><path d="M164.45,46.06c0,.73,0,.73.82.73h2.32c2.24,0,1.66-1.72,2.17-1.72.17,0,.24.24.24.41,0,.75,0,1.48,0,2.17s0,1.12,0,1.7c0,.19-.09.28-.24.28-.67,0,.06-1.89-1.74-1.89h-3.18c-.45,0-.39.37-.39.69v4c0,1.27-.17,1.78,1.63,1.78,5,0,5.7-2.21,6-2.21s.17.21.17.26a3.4,3.4,0,0,1-1.07,2.08c-.69.77-1.16.73-2.11.73-1.63,0-3.27-.13-4.9-.09-.86,0-1.76.09-2.62.09-.19,0-.32,0-.32-.22s.26-.21.95-.56.6-.86.6-1.87v-9.8c0-1,0-2-1.16-2.17-.17,0-.65-.09-.65-.34s.13-.26.75-.26c4.06,0,5.18.09,6.08.09.43,0,2.41-.09,3.07-.09.17,0,.21.21.21.47,0,2.39-.3,2.56-.43,2.56-.52,0-.17-1-.52-1.53-.56-.73-2.79-.6-3.65-.6-2.06,0-2-.09-2,1.35Z" style="fill:#fff"/><path d="M133.6,74.67c-.11-.56,0-.87.31-.87s.39.34.53.92a6,6,0,0,0,5.88,4.2c2.66,0,5.27-1.48,5.27-4.42,0-5.41-11.37-2.38-11.37-9.69,0-3.56,3-5.27,6.22-5.27a9.91,9.91,0,0,1,4.71,1c.25,0,.31-.31.59-.31s.31.08.34.39l.42,3.81c0,.22,0,.42-.31.42s-.5-.59-.59-.84a5.35,5.35,0,0,0-5.35-3.64c-2.21,0-4.57,1.06-4.57,3.64,0,5.27,11.37,2.18,11.37,9.92,0,2.35-1.65,5.88-8,5.88-2.07,0-4.62-1-4.73-1.54Z" style="fill:#fff"/><path d="M151.68,70.64c0,.73,0,.73.82.73h2.32c2.24,0,1.66-1.72,2.17-1.72.17,0,.24.24.24.41,0,.75,0,1.48,0,2.17s0,1.12,0,1.7c0,.19-.09.28-.24.28-.67,0,.06-1.89-1.74-1.89h-3.18c-.45,0-.39.37-.39.69v4c0,1.27-.17,1.78,1.63,1.78,5,0,5.7-2.21,6-2.21s.17.21.17.26a3.4,3.4,0,0,1-1.07,2.08c-.69.77-1.16.73-2.11.73-1.63,0-3.27-.13-4.9-.09-.86,0-1.76.09-2.62.09-.19,0-.32,0-.32-.21s.26-.21.95-.56S150,78,150,77v-9.8c0-1,0-2-1.16-2.17-.17,0-.64-.09-.64-.34s.13-.26.75-.26c4.06,0,5.18.09,6.08.09.43,0,2.41-.09,3.07-.09.17,0,.21.21.21.47,0,2.39-.3,2.56-.43,2.56-.52,0-.17-1-.52-1.53-.56-.73-2.79-.6-3.65-.6-2.06,0-2-.09-2,1.35Z" style="fill:#fff"/><path d="M163.55,76.63c0,3.1,2.26,2,2.26,2.71,0,.15-.09.26-.62.26-.73,0-1.05-.09-2.32-.09-1,0-1.72.09-2.34.09-.13,0-.34-.06-.34-.26,0-.58,1.68.09,1.68-2.3V66.75c0-2.58-1.76-1.27-1.76-2a.3.3,0,0,1,.28-.32c.19,0,.95.09,2.19.09,1.07,0,1.42-.09,2.45-.09,2.73,0,5.76.95,5.76,4.15,0,.86-.64,4.13-5.22,4.13-.22,0-1.46-.11-1.46-.49,0-.15.11-.19.21-.19a10.67,10.67,0,0,0,1.4.13c2.19,0,3.48-1.05,3.48-3,0-2.6-2-4-4.47-4-.69,0-1.16,0-1.16.65Z" style="fill:#fff"/><path d="M174.95,66.55c0-.15.09-1-.21-1h-3.5c-1.33,0-1.38.32-1.76,1.5-.06.22-.09.49-.37.49s-.22-.15-.22-.26l.24-2.08c0-.26,0-.84.39-.84,1.68,0,3.33.09,6.1.09,3.89,0,5.87-.09,6.3-.09s.6.13.62.62l.11,1.72c0,.21,0,.47-.24.47-.8,0,.37-1.63-1.83-1.63h-3.07c-1,0-.86-.09-.86,1.05v11c0,1.81,1.74,1.1,1.74,1.76,0,.06,0,.26-.19.26-.52,0-1.12-.09-1.74-.09a28.9,28.9,0,0,0-2.94.09c-.19,0-.26-.06-.26-.28,0-.52,1.7-.3,1.7-1.59Z" style="fill:#fff"/><path d="M184.94,66.23c0-1.57-1.74-1.14-1.74-1.61,0-.19,0-.24.21-.24.8,0,1.57.09,2.36.09s1.33-.09,2-.09c.34,0,.41,0,.41.21,0,.52-1.55,0-1.55,1.63V77.77c0,1.46,1.91,1,1.91,1.61,0,.15-.06.21-.43.21s-1.42-.09-2.34-.09c-1.31,0-1.76.09-2.06.09s-.45-.11-.45-.32c0-.62,1.68.09,1.68-2Z" style="fill:#fff"/><path d="M194.39,70.64c0,.73,0,.73.82.73h2.32c2.24,0,1.66-1.72,2.17-1.72.17,0,.24.24.24.41,0,.75,0,1.48,0,2.17s0,1.12,0,1.7c0,.19-.09.28-.24.28-.67,0,.06-1.89-1.74-1.89h-3.18c-.45,0-.39.37-.39.69v4c0,1.27-.17,1.78,1.63,1.78,5,0,5.7-2.21,6-2.21s.17.21.17.26a3.4,3.4,0,0,1-1.07,2.08c-.69.77-1.16.73-2.11.73-1.63,0-3.27-.13-4.9-.09-.86,0-1.76.09-2.62.09-.19,0-.32,0-.32-.21s.26-.21.95-.56.6-.86.6-1.87v-9.8c0-1,0-2-1.16-2.17-.17,0-.64-.09-.64-.34s.13-.26.75-.26c4.06,0,5.18.09,6.08.09.43,0,2.41-.09,3.07-.09.17,0,.21.21.21.47,0,2.39-.3,2.56-.43,2.56-.52,0-.17-1-.52-1.53-.56-.73-2.79-.6-3.65-.6-2.06,0-2-.09-2,1.35Z" style="fill:#fff"/><path d="M219,77.62c.11,1.81,1.7,1,1.7,1.76,0,.21-.28.21-.52.21-.41,0-1.16-.09-2-.09-.67,0-1.35.09-1.89.09-.19,0-.24-.11-.24-.19,0-.64,1.35-.17,1.33-1.76l-.21-8.34c0-.54-.11-.84-.24-.84s-.34.19-.56.64L212,78.18c-.11.19-.45,1.07-.67,1.07s-.37-.47-.43-.62L206.28,69c-.06-.17-.17-.24-.26-.24s-.13.11-.15.32l-.26,7.54c-.11,2.86,1.93,1.91,1.93,2.69,0,.21-.24.24-.54.24s-1.25-.09-1.89-.09c-1.12,0-1.48.09-1.87.09-.15,0-.21-.11-.21-.26,0-.73,1.38.15,1.53-2.08.26-3.5.52-5.78.52-8.06,0-5.05-2-3.85-2-4.58,0-.19.17-.24.37-.24.39,0,.77.09,1.18.09s.77-.09,1.16-.09.34.37.45.6l5.12,10.92c.24.45.32.64.47.64s.32-.45.67-1.16l5.12-10.27c.13-.24.3-.75.56-.73s.9.09,1,.09c.49,0,.69-.09,1-.09a.24.24,0,0,1,.21.26c0,.69-1.72-.24-1.63,2.32Z" style="fill:#fff"/><path d="M225.84,70.64c0,.73,0,.73.82.73H229c2.24,0,1.65-1.72,2.17-1.72.17,0,.24.24.24.41,0,.75,0,1.48,0,2.17s0,1.12,0,1.7c0,.19-.09.28-.24.28-.67,0,.06-1.89-1.74-1.89h-3.18c-.45,0-.39.37-.39.69v4c0,1.27-.17,1.78,1.63,1.78,5,0,5.7-2.21,6-2.21s.17.21.17.26a3.39,3.39,0,0,1-1.08,2.08c-.69.77-1.16.73-2.11.73-1.63,0-3.27-.13-4.9-.09-.86,0-1.76.09-2.62.09-.19,0-.32,0-.32-.21s.26-.21.95-.56.6-.86.6-1.87v-9.8c0-1,0-2-1.16-2.17-.17,0-.64-.09-.64-.34s.13-.26.75-.26c4.06,0,5.18.09,6.08.09.43,0,2.41-.09,3.07-.09.17,0,.21.21.21.47,0,2.39-.3,2.56-.43,2.56-.52,0-.17-1-.52-1.53-.56-.73-2.79-.6-3.65-.6-2.06,0-2-.09-2,1.35Z" style="fill:#fff"/><path d="M241.24,62.84c0-2.79-2.71-2-2.71-2.71,0-.22.14-.31.42-.31,1.17,0,1.76.11,3,.11s2-.11,2.6-.11c.28,0,.53.08.53.39,0,.61-1.65-.17-1.65,2V77.07c0,4.36-2.4,7.77-5.42,7.77-.87,0-1.09-.2-1.09-1,0-.39.22-1.56.61-1.56s1,1.12,1.73,1.12c1.17,0,2-1.59,2-4.05Z" style="fill:#fff"/><path d="M246.36,71.9a7.64,7.64,0,0,1,7.89-7.72A7.47,7.47,0,0,1,262,71.8c0,4.84-3.33,8-8.12,8S246.36,76.44,246.36,71.9Zm1.57-.62c0,4,2.6,7.82,6.86,7.82,3.14,0,5.65-2.52,5.65-6.49s-2.64-7.72-6.83-7.72C250,64.9,247.93,67.88,247.93,71.28Z" style="fill:#fff"/><path d="M266.44,73.86c0,3.44,2.24,5,5.14,5,4,0,5-2.66,5-5.2v-7c0-2.19-2-1.29-2-2.11,0-.11.15-.21.22-.21.84,0,1.68.09,2.51.09.41,0,.8-.09,1.18-.09.11,0,.28.11.28.24,0,.6-1.27.13-1.27,2.11v6.66c0,1.05.26,6.36-6,6.36-5.65,0-6.73-3.16-6.73-6.47V66c0-1.27-1.74-.75-1.74-1.44,0-.15.37-.21.47-.21.56,0,1.1.09,1.68.09s1.38-.09,2-.09c.11,0,.69,0,.69.21,0,.6-1.44,0-1.44,1.55Z" style="fill:#fff"/><path d="M291.18,77.26c1.55,2.36,2.6,1.57,2.6,2.08,0,.26-1.2.26-1.4.26-1.57,0-2.41-1.1-3.22-2.32l-2.39-3.76c-.77-1.2-.45-1.14-2.86-1.14-.69,0-.56.39-.56.6v4.54c0,1.85,2.24,1.18,2.24,1.91,0,.21-.19.17-.37.17s-.69-.09-2.47-.09c-.82,0-1.63.09-2.45.09a.22.22,0,0,1-.22-.24c0-.54,1.57-.24,1.57-1.87V66.55c0-2.06-1.85-1.18-1.85-1.91,0-.13.17-.26.43-.26a12.23,12.23,0,0,0,1.38.09c1.25,0,2.47-.09,3.59-.09.34,0,5.09-.43,5.09,3.72a4.16,4.16,0,0,1-2.71,3.72Zm-7.82-5.91c0,.41,1.33.3,2.34.3a2.8,2.8,0,0,0,3-3.05c0-2.62-2-3.5-4.11-3.5-.77,0-1.23,0-1.23.8Z" style="fill:#fff"/><path d="M101.08,66.68c0-2.19-1.76-1.5-1.76-2.09,0-.15.17-.22.3-.22.67,0,1.29.09,1.94.09,1.42,0,2.82-.09,4.66-.09,3.81,0,7.55,2.88,7.55,6.86,0,4.94-2.34,8.36-8.3,8.36-1.1,0-2.19-.09-3.29-.09l-2.41.09c-.17,0-.21-.09-.21-.21,0-.49,1.53,0,1.53-2Zm1.7,9.8c0,.34-.06,1.38.13,1.57a5.41,5.41,0,0,0,3.31,1c3.05,0,6-1.63,6-6.6,0-4.77-3.18-7.48-7.27-7.5-2,0-2.13.34-2.13,1.35Z" style="fill:#fff"/><path d="M117.05,73.86c0,3.44,2.24,5,5.14,5,4,0,5-2.67,5-5.2v-7c0-2.19-2-1.29-2-2.11,0-.11.15-.22.21-.22.84,0,1.68.09,2.52.09.41,0,.8-.09,1.18-.09.11,0,.28.11.28.24,0,.6-1.27.13-1.27,2.11v6.66c0,1.05.26,6.36-6,6.36-5.65,0-6.73-3.16-6.73-6.47V66c0-1.27-1.74-.75-1.74-1.44,0-.15.37-.22.47-.22.56,0,1.1.09,1.68.09s1.38-.09,2-.09c.11,0,.69,0,.69.22,0,.6-1.44,0-1.44,1.55Z" style="fill:#fff"/><path d="M307.41,35.16a2.76,2.76,0,1,1,0,5.52,2.62,2.62,0,0,1-2.1-1,2.76,2.76,0,0,1,0-3.58A2.65,2.65,0,0,1,307.41,35.16Zm0,.31a2.45,2.45,0,1,0,1.74.72A2.37,2.37,0,0,0,307.41,35.47Zm.35,2.45.62.9.08.11c.19.28.37.43.52.43H309s.07,0,.07.07-.13.11-.36.11a.91.91,0,0,1-.73-.49l-.58-.87,0-.05a.17.17,0,0,0-.16-.08h-.34v.85a.58.58,0,0,0,.07.35.53.53,0,0,0,.33.11c.07,0,.11,0,.12.08s0,.08-.11.08h-.78l-.19,0h-.12c-.07,0-.1,0-.1-.08s0-.06.09-.08a.3.3,0,0,0,.23-.16,1.57,1.57,0,0,0,0-.5V36.85c0-.22-.08-.34-.23-.36l-.11,0q-.1,0-.1-.09c0-.05,0-.08.11-.08h.37l.36,0h.33q1.11,0,1.11.82A.89.89,0,0,1,307.75,37.92Zm-.73-.1h.26a.53.53,0,0,0,.61-.59.64.64,0,0,0-.23-.5.81.81,0,0,0-.56-.2c-.14,0-.21.06-.21.17v1a.2.2,0,0,0,0,.11S307,37.82,307,37.82Z" style="fill:#fff"/><path d="M87.07,68.83a2.76,2.76,0,1,1,0,5.52,2.62,2.62,0,0,1-2.1-1,2.76,2.76,0,0,1,0-3.58A2.65,2.65,0,0,1,87.07,68.83Zm0,.31a2.45,2.45,0,1,0,1.74.72A2.37,2.37,0,0,0,87.07,69.13Zm.35,2.45.62.9.08.11c.19.28.37.43.52.43h.07s.07,0,.07.07-.13.11-.36.11a.91.91,0,0,1-.73-.49l-.58-.87,0-.05a.17.17,0,0,0-.16-.08h-.34v.85a.58.58,0,0,0,.07.35A.53.53,0,0,0,87,73c.07,0,.11,0,.12.08s0,.08-.11.08h-.78l-.19,0h-.12c-.07,0-.1,0-.1-.08s0-.06.09-.08a.3.3,0,0,0,.23-.16,1.57,1.57,0,0,0,0-.5V70.52c0-.22-.08-.34-.23-.36l-.11,0q-.1,0-.1-.09c0-.05,0-.08.11-.08h.37l.36,0h.33Q88,70,88,70.78A.89.89,0,0,1,87.42,71.58Zm-.73-.1H87a.53.53,0,0,0,.61-.59.64.64,0,0,0-.23-.5.81.81,0,0,0-.56-.2c-.14,0-.21.06-.21.17v1a.2.2,0,0,0,0,.11S86.63,71.48,86.69,71.48Z" style="fill:#fff"/></svg>